<mxfile host="Electron" modified="2024-01-17T15:47:13.731Z" agent="Mozilla/5.0 (Windows NT 10.0; Win64; x64) AppleWebKit/537.36 (KHTML, like Gecko) draw.io/22.1.2 Chrome/114.0.5735.289 Electron/25.9.4 Safari/537.36" etag="7eRtJ7g3GObTWdUJHwCV" version="22.1.2" type="device">
  <diagram name="Pagina-1" id="WWh0_SsoO25W6FRa21t9">
    <mxGraphModel dx="794" dy="477" grid="1" gridSize="10" guides="1" tooltips="1" connect="1" arrows="1" fold="1" page="1" pageScale="1" pageWidth="1169" pageHeight="827" math="0" shadow="0">
      <root>
        <mxCell id="0" />
        <mxCell id="1" parent="0" />
        <mxCell id="SUVodkcdX4tQ2F5Mpv8K-30" value="Google&lt;br&gt;Identity &lt;br&gt;Services" style="shape=umlActor;verticalLabelPosition=bottom;verticalAlign=top;html=1;" parent="1" vertex="1">
          <mxGeometry x="1120" y="50" width="30" height="60" as="geometry" />
        </mxCell>
        <mxCell id="SUVodkcdX4tQ2F5Mpv8K-131" value="" style="swimlane;startSize=0;" parent="1" vertex="1">
          <mxGeometry x="90" y="20" width="992.31" height="650" as="geometry">
            <mxRectangle x="100" y="40" width="50" height="40" as="alternateBounds" />
          </mxGeometry>
        </mxCell>
        <mxCell id="SUVodkcdX4tQ2F5Mpv8K-117" value="Log in" style="ellipse;whiteSpace=wrap;html=1;movable=1;resizable=1;rotatable=1;deletable=1;editable=1;locked=0;connectable=1;" parent="SUVodkcdX4tQ2F5Mpv8K-131" vertex="1">
          <mxGeometry x="840" y="67.78" width="102.3076923076923" height="62.222222222222214" as="geometry" />
        </mxCell>
        <mxCell id="SUVodkcdX4tQ2F5Mpv8K-22" value="" style="rounded=0;orthogonalLoop=1;jettySize=auto;html=1;" parent="SUVodkcdX4tQ2F5Mpv8K-131" source="SUVodkcdX4tQ2F5Mpv8K-2" target="SUVodkcdX4tQ2F5Mpv8K-13" edge="1">
          <mxGeometry relative="1" as="geometry" />
        </mxCell>
        <mxCell id="SUVodkcdX4tQ2F5Mpv8K-147" value="" style="rounded=0;orthogonalLoop=1;jettySize=auto;html=1;" parent="SUVodkcdX4tQ2F5Mpv8K-131" source="SUVodkcdX4tQ2F5Mpv8K-2" target="SUVodkcdX4tQ2F5Mpv8K-17" edge="1">
          <mxGeometry relative="1" as="geometry" />
        </mxCell>
        <mxCell id="SUVodkcdX4tQ2F5Mpv8K-2" value="Pickie" style="shape=umlActor;verticalLabelPosition=bottom;verticalAlign=top;html=1;" parent="SUVodkcdX4tQ2F5Mpv8K-131" vertex="1">
          <mxGeometry x="-60" y="130" width="30" height="60" as="geometry" />
        </mxCell>
        <mxCell id="SUVodkcdX4tQ2F5Mpv8K-17" value="Review dish" style="ellipse;whiteSpace=wrap;html=1;movable=1;resizable=1;rotatable=1;deletable=1;editable=1;locked=0;connectable=1;" parent="SUVodkcdX4tQ2F5Mpv8K-131" vertex="1">
          <mxGeometry x="79.99615384615382" y="190.00000000000006" width="102.3076923076923" height="62.222222222222214" as="geometry" />
        </mxCell>
        <mxCell id="SUVodkcdX4tQ2F5Mpv8K-169" style="rounded=0;orthogonalLoop=1;jettySize=auto;html=1;entryX=1;entryY=0.5;entryDx=0;entryDy=0;" parent="SUVodkcdX4tQ2F5Mpv8K-131" source="SUVodkcdX4tQ2F5Mpv8K-18" target="SUVodkcdX4tQ2F5Mpv8K-17" edge="1">
          <mxGeometry relative="1" as="geometry" />
        </mxCell>
        <mxCell id="0ggBJ-V_-2L_ERKzc3WN-101" value="Extends" style="edgeLabel;html=1;align=center;verticalAlign=middle;resizable=0;points=[];" parent="SUVodkcdX4tQ2F5Mpv8K-169" vertex="1" connectable="0">
          <mxGeometry x="-0.35" y="-1" relative="1" as="geometry">
            <mxPoint x="-8" y="1" as="offset" />
          </mxGeometry>
        </mxCell>
        <mxCell id="SUVodkcdX4tQ2F5Mpv8K-18" value="Report dish" style="ellipse;whiteSpace=wrap;html=1;movable=1;resizable=1;rotatable=1;deletable=1;editable=1;locked=0;connectable=1;" parent="SUVodkcdX4tQ2F5Mpv8K-131" vertex="1">
          <mxGeometry x="250.00230769230768" y="190" width="102.3076923076923" height="62.222222222222214" as="geometry" />
        </mxCell>
        <mxCell id="SUVodkcdX4tQ2F5Mpv8K-70" value="Remove dish" style="ellipse;whiteSpace=wrap;html=1;movable=1;resizable=1;rotatable=1;deletable=1;editable=1;locked=0;connectable=1;" parent="SUVodkcdX4tQ2F5Mpv8K-131" vertex="1">
          <mxGeometry x="444.9846153846154" y="582.2133333333334" width="102.3076923076923" height="62.222222222222214" as="geometry" />
        </mxCell>
        <mxCell id="SUVodkcdX4tQ2F5Mpv8K-212" value="" style="rounded=0;orthogonalLoop=1;jettySize=auto;html=1;entryX=0;entryY=1;entryDx=0;entryDy=0;exitX=1;exitY=0;exitDx=0;exitDy=0;" parent="SUVodkcdX4tQ2F5Mpv8K-131" source="SUVodkcdX4tQ2F5Mpv8K-107" target="SUVodkcdX4tQ2F5Mpv8K-21" edge="1">
          <mxGeometry relative="1" as="geometry">
            <mxPoint x="562" y="440" as="targetPoint" />
          </mxGeometry>
        </mxCell>
        <mxCell id="0ggBJ-V_-2L_ERKzc3WN-108" value="Includes" style="edgeLabel;html=1;align=center;verticalAlign=middle;resizable=0;points=[];" parent="SUVodkcdX4tQ2F5Mpv8K-212" vertex="1" connectable="0">
          <mxGeometry x="0.4693" y="-1" relative="1" as="geometry">
            <mxPoint x="-2" y="35" as="offset" />
          </mxGeometry>
        </mxCell>
        <mxCell id="SUVodkcdX4tQ2F5Mpv8K-107" value="Add dish" style="ellipse;whiteSpace=wrap;html=1;movable=1;resizable=1;rotatable=1;deletable=1;editable=1;locked=0;connectable=1;" parent="SUVodkcdX4tQ2F5Mpv8K-131" vertex="1">
          <mxGeometry x="444.9846153846154" y="512.2133333333334" width="102.3076923076923" height="62.222222222222214" as="geometry" />
        </mxCell>
        <mxCell id="SUVodkcdX4tQ2F5Mpv8K-19" value="Update dish" style="ellipse;whiteSpace=wrap;html=1;movable=1;resizable=1;rotatable=1;deletable=1;editable=1;locked=0;connectable=1;" parent="SUVodkcdX4tQ2F5Mpv8K-131" vertex="1">
          <mxGeometry x="449.9984615384616" y="304.46555555555545" width="102.3076923076923" height="62.222222222222214" as="geometry" />
        </mxCell>
        <mxCell id="SUVodkcdX4tQ2F5Mpv8K-218" value="" style="rounded=0;orthogonalLoop=1;jettySize=auto;html=1;exitX=1;exitY=0;exitDx=0;exitDy=0;entryX=0;entryY=1;entryDx=0;entryDy=0;" parent="SUVodkcdX4tQ2F5Mpv8K-131" source="SUVodkcdX4tQ2F5Mpv8K-20" target="SUVodkcdX4tQ2F5Mpv8K-19" edge="1">
          <mxGeometry relative="1" as="geometry">
            <mxPoint x="492" y="367.69" as="targetPoint" />
          </mxGeometry>
        </mxCell>
        <mxCell id="0ggBJ-V_-2L_ERKzc3WN-107" value="Extends" style="edgeLabel;html=1;align=center;verticalAlign=middle;resizable=0;points=[];" parent="SUVodkcdX4tQ2F5Mpv8K-218" vertex="1" connectable="0">
          <mxGeometry x="-0.7314" relative="1" as="geometry">
            <mxPoint y="-6" as="offset" />
          </mxGeometry>
        </mxCell>
        <mxCell id="lcHNOFjkieyMgR1XKtjw-1" value="" style="rounded=0;orthogonalLoop=1;jettySize=auto;html=1;exitX=1;exitY=1;exitDx=0;exitDy=0;entryX=0;entryY=0;entryDx=0;entryDy=0;" parent="SUVodkcdX4tQ2F5Mpv8K-131" source="SUVodkcdX4tQ2F5Mpv8K-20" target="SUVodkcdX4tQ2F5Mpv8K-107" edge="1">
          <mxGeometry relative="1" as="geometry" />
        </mxCell>
        <mxCell id="lcHNOFjkieyMgR1XKtjw-3" value="Extends" style="edgeLabel;html=1;align=center;verticalAlign=middle;resizable=0;points=[];" parent="lcHNOFjkieyMgR1XKtjw-1" vertex="1" connectable="0">
          <mxGeometry x="-0.3954" y="-1" relative="1" as="geometry">
            <mxPoint x="4" y="-10" as="offset" />
          </mxGeometry>
        </mxCell>
        <mxCell id="SUVodkcdX4tQ2F5Mpv8K-20" value="Remove ingredient" style="ellipse;whiteSpace=wrap;html=1;movable=1;resizable=1;rotatable=1;deletable=1;editable=1;locked=0;connectable=1;" parent="SUVodkcdX4tQ2F5Mpv8K-131" vertex="1">
          <mxGeometry x="351.13692307692315" y="407.1122222222223" width="102.3076923076923" height="62.222222222222214" as="geometry" />
        </mxCell>
        <mxCell id="SUVodkcdX4tQ2F5Mpv8K-215" value="" style="rounded=0;orthogonalLoop=1;jettySize=auto;html=1;entryX=1;entryY=1;entryDx=0;entryDy=0;exitX=0;exitY=0;exitDx=0;exitDy=0;" parent="SUVodkcdX4tQ2F5Mpv8K-131" source="SUVodkcdX4tQ2F5Mpv8K-21" target="SUVodkcdX4tQ2F5Mpv8K-19" edge="1">
          <mxGeometry relative="1" as="geometry" />
        </mxCell>
        <mxCell id="0ggBJ-V_-2L_ERKzc3WN-109" value="Extends" style="edgeLabel;html=1;align=center;verticalAlign=middle;resizable=0;points=[];" parent="SUVodkcdX4tQ2F5Mpv8K-215" vertex="1" connectable="0">
          <mxGeometry x="-0.5087" y="-1" relative="1" as="geometry">
            <mxPoint as="offset" />
          </mxGeometry>
        </mxCell>
        <mxCell id="gfF8k4J5GaET6WxlGwNS-1" value="" style="edgeStyle=orthogonalEdgeStyle;rounded=0;orthogonalLoop=1;jettySize=auto;html=1;entryX=0.5;entryY=0;entryDx=0;entryDy=0;exitX=0.5;exitY=1;exitDx=0;exitDy=0;" parent="SUVodkcdX4tQ2F5Mpv8K-131" source="SUVodkcdX4tQ2F5Mpv8K-222" target="SUVodkcdX4tQ2F5Mpv8K-21" edge="1">
          <mxGeometry relative="1" as="geometry" />
        </mxCell>
        <mxCell id="gfF8k4J5GaET6WxlGwNS-2" value="Extends" style="edgeLabel;html=1;align=center;verticalAlign=middle;resizable=0;points=[];" parent="gfF8k4J5GaET6WxlGwNS-1" vertex="1" connectable="0">
          <mxGeometry x="-0.699" y="-1" relative="1" as="geometry">
            <mxPoint x="1" y="-37" as="offset" />
          </mxGeometry>
        </mxCell>
        <mxCell id="SUVodkcdX4tQ2F5Mpv8K-21" value="Add ingredient" style="ellipse;whiteSpace=wrap;html=1;movable=1;resizable=1;rotatable=1;deletable=1;editable=1;locked=0;connectable=1;" parent="SUVodkcdX4tQ2F5Mpv8K-131" vertex="1">
          <mxGeometry x="538.8346153846154" y="407.11333333333334" width="102.3076923076923" height="62.222222222222214" as="geometry" />
        </mxCell>
        <mxCell id="SUVodkcdX4tQ2F5Mpv8K-13" value="Find restaurant" style="ellipse;whiteSpace=wrap;html=1;movable=1;resizable=1;rotatable=1;deletable=1;editable=1;locked=0;connectable=1;" parent="SUVodkcdX4tQ2F5Mpv8K-131" vertex="1">
          <mxGeometry x="80" y="120" width="102.3076923076923" height="62.222222222222214" as="geometry" />
        </mxCell>
        <mxCell id="SUVodkcdX4tQ2F5Mpv8K-167" value="Manage dish report" style="ellipse;whiteSpace=wrap;html=1;movable=1;resizable=1;rotatable=1;deletable=1;editable=1;locked=0;connectable=1;" parent="SUVodkcdX4tQ2F5Mpv8K-131" vertex="1">
          <mxGeometry x="80" y="361.22777777777776" width="102.3076923076923" height="62.222222222222214" as="geometry" />
        </mxCell>
        <mxCell id="SUVodkcdX4tQ2F5Mpv8K-178" value="" style="rounded=0;orthogonalLoop=1;jettySize=auto;html=1;entryX=1;entryY=0.5;entryDx=0;entryDy=0;exitX=0;exitY=0;exitDx=0;exitDy=0;" parent="SUVodkcdX4tQ2F5Mpv8K-131" source="SUVodkcdX4tQ2F5Mpv8K-19" target="SUVodkcdX4tQ2F5Mpv8K-167" edge="1">
          <mxGeometry relative="1" as="geometry">
            <mxPoint x="416" y="336.11" as="sourcePoint" />
            <mxPoint x="190" y="384.11" as="targetPoint" />
          </mxGeometry>
        </mxCell>
        <mxCell id="0ggBJ-V_-2L_ERKzc3WN-106" value="Extends" style="edgeLabel;html=1;align=center;verticalAlign=middle;resizable=0;points=[];" parent="SUVodkcdX4tQ2F5Mpv8K-178" vertex="1" connectable="0">
          <mxGeometry x="-0.7593" y="-1" relative="1" as="geometry">
            <mxPoint y="-3" as="offset" />
          </mxGeometry>
        </mxCell>
        <mxCell id="SUVodkcdX4tQ2F5Mpv8K-222" value="Report missing ingredient" style="ellipse;whiteSpace=wrap;html=1;movable=1;resizable=1;rotatable=1;deletable=1;editable=1;locked=0;connectable=1;" parent="SUVodkcdX4tQ2F5Mpv8K-131" vertex="1">
          <mxGeometry x="538.8315384615385" y="50" width="102.3076923076923" height="62.222222222222214" as="geometry" />
        </mxCell>
        <mxCell id="SUVodkcdX4tQ2F5Mpv8K-177" value="" style="rounded=0;orthogonalLoop=1;jettySize=auto;html=1;exitX=0;exitY=0.5;exitDx=0;exitDy=0;entryX=1;entryY=1;entryDx=0;entryDy=0;" parent="SUVodkcdX4tQ2F5Mpv8K-131" source="SUVodkcdX4tQ2F5Mpv8K-70" target="SUVodkcdX4tQ2F5Mpv8K-15" edge="1">
          <mxGeometry relative="1" as="geometry">
            <mxPoint x="384" y="437" as="sourcePoint" />
            <mxPoint x="168" y="493" as="targetPoint" />
          </mxGeometry>
        </mxCell>
        <mxCell id="0ggBJ-V_-2L_ERKzc3WN-105" value="Extends" style="edgeLabel;html=1;align=center;verticalAlign=middle;resizable=0;points=[];" parent="SUVodkcdX4tQ2F5Mpv8K-177" vertex="1" connectable="0">
          <mxGeometry x="-0.8169" y="3" relative="1" as="geometry">
            <mxPoint as="offset" />
          </mxGeometry>
        </mxCell>
        <mxCell id="SUVodkcdX4tQ2F5Mpv8K-174" value="" style="rounded=0;orthogonalLoop=1;jettySize=auto;html=1;entryX=1;entryY=0;entryDx=0;entryDy=0;exitX=0;exitY=0.5;exitDx=0;exitDy=0;" parent="SUVodkcdX4tQ2F5Mpv8K-131" source="SUVodkcdX4tQ2F5Mpv8K-19" target="SUVodkcdX4tQ2F5Mpv8K-15" edge="1">
          <mxGeometry relative="1" as="geometry" />
        </mxCell>
        <mxCell id="0ggBJ-V_-2L_ERKzc3WN-102" value="Extends" style="edgeLabel;html=1;align=center;verticalAlign=middle;resizable=0;points=[];" parent="SUVodkcdX4tQ2F5Mpv8K-174" vertex="1" connectable="0">
          <mxGeometry x="-0.6996" relative="1" as="geometry">
            <mxPoint x="17" y="-12" as="offset" />
          </mxGeometry>
        </mxCell>
        <mxCell id="SUVodkcdX4tQ2F5Mpv8K-175" value="" style="rounded=0;orthogonalLoop=1;jettySize=auto;html=1;exitX=0;exitY=0.5;exitDx=0;exitDy=0;entryX=1;entryY=0.5;entryDx=0;entryDy=0;" parent="SUVodkcdX4tQ2F5Mpv8K-131" source="SUVodkcdX4tQ2F5Mpv8K-107" target="SUVodkcdX4tQ2F5Mpv8K-15" edge="1">
          <mxGeometry relative="1" as="geometry">
            <mxPoint x="336" y="484.77" as="sourcePoint" />
            <mxPoint x="120" y="540.77" as="targetPoint" />
          </mxGeometry>
        </mxCell>
        <mxCell id="0ggBJ-V_-2L_ERKzc3WN-104" value="Extends" style="edgeLabel;html=1;align=center;verticalAlign=middle;resizable=0;points=[];" parent="SUVodkcdX4tQ2F5Mpv8K-175" vertex="1" connectable="0">
          <mxGeometry x="-0.7945" y="3" relative="1" as="geometry">
            <mxPoint as="offset" />
          </mxGeometry>
        </mxCell>
        <mxCell id="SUVodkcdX4tQ2F5Mpv8K-11" value="Personalize&lt;br&gt;eating&lt;br&gt;preferences" style="ellipse;whiteSpace=wrap;html=1;movable=1;resizable=1;rotatable=1;deletable=1;editable=1;locked=0;connectable=1;" parent="SUVodkcdX4tQ2F5Mpv8K-131" vertex="1">
          <mxGeometry x="80.00384615384615" y="50" width="102.3076923076923" height="62.222222222222214" as="geometry" />
        </mxCell>
        <mxCell id="SUVodkcdX4tQ2F5Mpv8K-224" value="" style="rounded=0;orthogonalLoop=1;jettySize=auto;html=1;entryX=1;entryY=0.5;entryDx=0;entryDy=0;exitX=0;exitY=0.5;exitDx=0;exitDy=0;" parent="SUVodkcdX4tQ2F5Mpv8K-131" source="SUVodkcdX4tQ2F5Mpv8K-222" target="SUVodkcdX4tQ2F5Mpv8K-11" edge="1">
          <mxGeometry relative="1" as="geometry" />
        </mxCell>
        <mxCell id="0ggBJ-V_-2L_ERKzc3WN-99" value="Extends" style="edgeLabel;html=1;align=center;verticalAlign=middle;resizable=0;points=[];" parent="SUVodkcdX4tQ2F5Mpv8K-224" vertex="1" connectable="0">
          <mxGeometry x="-0.4987" y="2" relative="1" as="geometry">
            <mxPoint x="60" y="-2" as="offset" />
          </mxGeometry>
        </mxCell>
        <mxCell id="0ggBJ-V_-2L_ERKzc3WN-48" value="Manage missing ingredient report" style="ellipse;whiteSpace=wrap;html=1;movable=1;resizable=1;rotatable=1;deletable=1;editable=1;locked=0;connectable=1;" parent="SUVodkcdX4tQ2F5Mpv8K-131" vertex="1">
          <mxGeometry x="80" y="286.78777777777776" width="102.3076923076923" height="62.222222222222214" as="geometry" />
        </mxCell>
        <mxCell id="SUVodkcdX4tQ2F5Mpv8K-26" value="" style="rounded=0;orthogonalLoop=1;jettySize=auto;html=1;" parent="SUVodkcdX4tQ2F5Mpv8K-131" source="SUVodkcdX4tQ2F5Mpv8K-3" target="SUVodkcdX4tQ2F5Mpv8K-15" edge="1">
          <mxGeometry relative="1" as="geometry">
            <mxPoint x="-40" y="560.21" as="sourcePoint" />
          </mxGeometry>
        </mxCell>
        <mxCell id="SUVodkcdX4tQ2F5Mpv8K-115" value="" style="rounded=0;orthogonalLoop=1;jettySize=auto;html=1;" parent="SUVodkcdX4tQ2F5Mpv8K-131" source="SUVodkcdX4tQ2F5Mpv8K-3" target="SUVodkcdX4tQ2F5Mpv8K-114" edge="1">
          <mxGeometry relative="1" as="geometry" />
        </mxCell>
        <mxCell id="SUVodkcdX4tQ2F5Mpv8K-3" value="Restaurateur" style="shape=umlActor;verticalLabelPosition=bottom;verticalAlign=top;html=1;" parent="SUVodkcdX4tQ2F5Mpv8K-131" vertex="1">
          <mxGeometry x="-60" y="507.21000000000004" width="30" height="60" as="geometry" />
        </mxCell>
        <mxCell id="SUVodkcdX4tQ2F5Mpv8K-15" value="Provide menu details" style="ellipse;whiteSpace=wrap;html=1;movable=1;resizable=1;rotatable=1;deletable=1;editable=1;locked=0;connectable=1;" parent="SUVodkcdX4tQ2F5Mpv8K-131" vertex="1">
          <mxGeometry x="80" y="465.21" width="102.3076923076923" height="62.222222222222214" as="geometry" />
        </mxCell>
        <mxCell id="SUVodkcdX4tQ2F5Mpv8K-114" value="Provide&lt;br&gt;restaurant details" style="ellipse;whiteSpace=wrap;html=1;movable=1;resizable=1;rotatable=1;deletable=1;editable=1;locked=0;connectable=1;" parent="SUVodkcdX4tQ2F5Mpv8K-131" vertex="1">
          <mxGeometry x="80" y="542.9922222222224" width="102.3076923076923" height="62.222222222222214" as="geometry" />
        </mxCell>
        <mxCell id="SUVodkcdX4tQ2F5Mpv8K-6" value="Administrator" style="shape=umlActor;verticalLabelPosition=bottom;verticalAlign=top;html=1;" parent="SUVodkcdX4tQ2F5Mpv8K-131" vertex="1">
          <mxGeometry x="-60" y="329" width="30" height="60" as="geometry" />
        </mxCell>
        <mxCell id="SUVodkcdX4tQ2F5Mpv8K-168" value="" style="rounded=0;orthogonalLoop=1;jettySize=auto;html=1;" parent="SUVodkcdX4tQ2F5Mpv8K-131" source="SUVodkcdX4tQ2F5Mpv8K-6" target="SUVodkcdX4tQ2F5Mpv8K-167" edge="1">
          <mxGeometry relative="1" as="geometry" />
        </mxCell>
        <mxCell id="0ggBJ-V_-2L_ERKzc3WN-51" value="" style="rounded=0;orthogonalLoop=1;jettySize=auto;html=1;exitX=1;exitY=0.3333333333333333;exitDx=0;exitDy=0;exitPerimeter=0;entryX=0;entryY=0.5;entryDx=0;entryDy=0;" parent="SUVodkcdX4tQ2F5Mpv8K-131" source="SUVodkcdX4tQ2F5Mpv8K-6" target="0ggBJ-V_-2L_ERKzc3WN-48" edge="1">
          <mxGeometry relative="1" as="geometry">
            <mxPoint x="-30.450000000000003" y="361.32" as="sourcePoint" />
            <mxPoint x="79.55000000000001" y="352.32" as="targetPoint" />
          </mxGeometry>
        </mxCell>
        <mxCell id="0ggBJ-V_-2L_ERKzc3WN-89" style="rounded=0;orthogonalLoop=1;jettySize=auto;html=1;entryX=0;entryY=0.5;entryDx=0;entryDy=0;" parent="SUVodkcdX4tQ2F5Mpv8K-131" source="SUVodkcdX4tQ2F5Mpv8K-2" target="SUVodkcdX4tQ2F5Mpv8K-11" edge="1">
          <mxGeometry relative="1" as="geometry">
            <mxPoint x="-50" y="190.11" as="sourcePoint" />
            <mxPoint x="80" y="92.11000000000001" as="targetPoint" />
          </mxGeometry>
        </mxCell>
        <mxCell id="SUVodkcdX4tQ2F5Mpv8K-249" value="PickyEaters" style="text;html=1;align=center;verticalAlign=middle;resizable=0;points=[];autosize=1;strokeColor=none;fillColor=none;" parent="SUVodkcdX4tQ2F5Mpv8K-131" vertex="1">
          <mxGeometry width="90" height="30" as="geometry" />
        </mxCell>
        <mxCell id="0ggBJ-V_-2L_ERKzc3WN-1" value="Facebook &lt;br&gt;Login" style="shape=umlActor;verticalLabelPosition=bottom;verticalAlign=top;html=1;" parent="1" vertex="1">
          <mxGeometry x="1120" y="170" width="30" height="60" as="geometry" />
        </mxCell>
        <mxCell id="0ggBJ-V_-2L_ERKzc3WN-4" value="" style="endArrow=classic;html=1;rounded=0;exitX=1;exitY=0;exitDx=0;exitDy=0;" parent="1" source="SUVodkcdX4tQ2F5Mpv8K-117" target="SUVodkcdX4tQ2F5Mpv8K-30" edge="1">
          <mxGeometry width="50" height="50" relative="1" as="geometry">
            <mxPoint x="1052.31" y="261.12" as="sourcePoint" />
            <mxPoint x="1102.31" y="211.12" as="targetPoint" />
          </mxGeometry>
        </mxCell>
        <mxCell id="0ggBJ-V_-2L_ERKzc3WN-2" value="" style="endArrow=classic;html=1;rounded=0;exitX=1;exitY=1;exitDx=0;exitDy=0;" parent="1" source="SUVodkcdX4tQ2F5Mpv8K-117" target="0ggBJ-V_-2L_ERKzc3WN-1" edge="1">
          <mxGeometry width="50" height="50" relative="1" as="geometry">
            <mxPoint x="1052.31" y="285" as="sourcePoint" />
            <mxPoint x="1110" y="210" as="targetPoint" />
          </mxGeometry>
        </mxCell>
        <mxCell id="0ggBJ-V_-2L_ERKzc3WN-130" value="Notes: &lt;br&gt;&lt;div style=&quot;&quot;&gt;&lt;ol&gt;&lt;li&gt;&lt;span style=&quot;background-color: initial;&quot;&gt;All use cases, &lt;/span&gt;&lt;i style=&quot;background-color: initial;&quot;&gt;Log in&lt;/i&gt;&lt;span style=&quot;background-color: initial;&quot;&gt; excluded, include &lt;/span&gt;&lt;i style=&quot;background-color: initial;&quot;&gt;Log in&lt;/i&gt;&lt;span style=&quot;background-color: initial;&quot;&gt;.&lt;/span&gt;&lt;/li&gt;&lt;li&gt;The arrows from the actors &lt;i&gt;Pickie&lt;/i&gt;, &lt;i&gt;Administrator &lt;/i&gt;and &lt;i&gt;Restaurateur &lt;/i&gt;towards the use case &lt;i&gt;Log in &lt;/i&gt;exist yet are not drawn for visual clarity.&lt;/li&gt;&lt;/ol&gt;&lt;/div&gt;&lt;div style=&quot;&quot;&gt;&lt;br&gt;&lt;/div&gt;" style="text;html=1;align=left;verticalAlign=middle;resizable=0;points=[];autosize=1;strokeColor=none;fillColor=none;" parent="1" vertex="1">
          <mxGeometry x="100" y="700" width="780" height="100" as="geometry" />
        </mxCell>
      </root>
    </mxGraphModel>
  </diagram>
</mxfile>
